HIERARCHY
ROOT Hips
{
	OFFSET 0.000000 0.000000 0.000000
	CHANNELS 6 Xposition Yposition Zposition Zrotation Yrotation Xrotation 
	JOINT LeftUpLeg_virtual
	{
		OFFSET 0.000000 0.000000 0.000000
		CHANNELS 3 Zrotation Yrotation Xrotation
		JOINT LeftUpLeg
		{
			OFFSET 10.205400 -3.823500 0.155100
			CHANNELS 3 Zrotation Yrotation Xrotation
			JOINT LeftLeg
			{
				OFFSET 0.708757 -12.982077 0.567790
				CHANNELS 3 Zrotation Yrotation Xrotation
				JOINT LeftFoot
				{
					OFFSET -0.708756 -10.717838 -2.184338
					CHANNELS 3 Zrotation Yrotation Xrotation
					JOINT LeftToeBase
					{
						OFFSET 0.108149 -7.191104 7.560241
						CHANNELS 3 Zrotation Yrotation Xrotation
						End Site
						{
							OFFSET 0.000000 0.000000 0.000000
						}
					}
				}
			}
		}
	}
	JOINT RightUpLeg_virtual
	{
		OFFSET 0.000000 0.000000 0.000000
		CHANNELS 3 Zrotation Yrotation Xrotation
		JOINT RightUpLeg
		{
			OFFSET -10.205400 -3.823500 0.005500
			CHANNELS 3 Zrotation Yrotation Xrotation
			JOINT RightLeg
			{
				OFFSET -0.708756 -12.982134 0.610632
				CHANNELS 3 Zrotation Yrotation Xrotation
				JOINT RightFoot
				{
					OFFSET 0.708754 -10.717769 -1.945823
					CHANNELS 3 Zrotation Yrotation Xrotation
					JOINT RightToeBase
					{
						OFFSET -0.108140 -7.191069 7.372968
						CHANNELS 3 Zrotation Yrotation Xrotation
						End Site
						{
							OFFSET 0.000000 0.000000 0.000000
						}
					}
				}
			}
		}
	}
	JOINT Spine_virtual
	{
		OFFSET 0.000000 0.000000 0.000000
		CHANNELS 3 Zrotation Yrotation Xrotation
		JOINT Spine
		{
			OFFSET 0.000000 6.876099 0.125700
			CHANNELS 3 Zrotation Yrotation Xrotation
			JOINT Spine1
			{
				OFFSET 0.000000 8.022060 0.146608
				CHANNELS 3 Zrotation Yrotation Xrotation
				JOINT Spine2
				{
					OFFSET 0.000000 9.168068 0.167552
					CHANNELS 3 Zrotation Yrotation Xrotation
					JOINT Neck_virtual
					{
						OFFSET 0.000000 0.000000 0.000000
						CHANNELS 3 Zrotation Yrotation Xrotation
						JOINT Neck
						{
							OFFSET 0.000000 10.314075 0.188496
							CHANNELS 3 Zrotation Yrotation Xrotation
							JOINT Head
							{
								OFFSET 0.000000 7.643700 -2.377400
								CHANNELS 3 Zrotation Yrotation Xrotation
								End Site
								{
									OFFSET 0.000000 0.000000 0.000000
								}
							}
						}
					}
					JOINT LeftShoulder_virtual
					{
						OFFSET 0.000000 0.000000 0.000000
						CHANNELS 3 Zrotation Yrotation Xrotation
						JOINT LeftShoulder
						{
							OFFSET 4.392200 8.824978 0.174984
							CHANNELS 3 Zrotation Yrotation Xrotation
							JOINT LeftArm
							{
								OFFSET 8.771219 -2.981674 -0.026999
								CHANNELS 3 Zrotation Yrotation Xrotation
								JOINT LeftForeArm
								{
									OFFSET 8.512804 0.000000 -0.000000
									CHANNELS 3 Zrotation Yrotation Xrotation
									JOINT LeftHand
									{
										OFFSET 18.484802 0.000000 -0.000000
										CHANNELS 3 Zrotation Yrotation Xrotation
										End Site
										{
											OFFSET 0.000000 0.000000 0.000000
										}
									}
								}
							}
						}
					}
					JOINT RightShoulder_virtual
					{
						OFFSET 0.000000 0.000000 0.000000
						CHANNELS 3 Zrotation Yrotation Xrotation
						JOINT RightShoulder
						{
							OFFSET -4.392200 8.824993 0.141379
							CHANNELS 3 Zrotation Yrotation Xrotation
							JOINT RightArm
							{
								OFFSET -8.771282 -2.981682 -0.094208
								CHANNELS 3 Zrotation Yrotation Xrotation
								JOINT RightForeArm
								{
									OFFSET -8.494598 0.000000 0.000000
									CHANNELS 3 Zrotation Yrotation Xrotation
									JOINT RightHand
									{
										OFFSET -18.483803 0.000000 0.000001
										CHANNELS 3 Zrotation Yrotation Xrotation
										End Site
										{
											OFFSET 0.000000 0.000000 0.000000
										}
									}
								}
							}
						}
					}
				}
			}
		}
	}
}
MOTION
Frames: 9
Frame Time: 0.033333
-13.112995 36.212070 -21.301697 179.951237 -2.402210 179.545797 -0.359230 -1.762290 13.799113 -0.506031 -3.965928 -15.576812 4.416071 4.247637 13.880429 -4.443000 -0.215118 6.037690 0.000000 0.000000 0.000000 4.953531 -1.741365 15.208215 -8.081818 4.245072 -14.835605 -6.117933 5.931568 16.810195 12.809124 0.121864 4.778193 0.000000 0.000000 0.000000 2.583463 1.269868 2.743854 1.038205 -1.480811 -14.203792 -0.409648 -2.902860 7.510589 -0.011063 0.014267 -0.091816 -0.785478 -0.453321 9.485914 -3.766870 3.059723 16.875405 0.000000 0.000000 0.000000 1.164988 0.222324 6.511686 -17.231521 -6.168630 1.783617 -50.663106 10.699537 -3.584068 3.441123 -32.032768 1.122423 0.000000 0.000000 0.000000 -3.372682 1.367660 5.697478 26.922318 3.073875 6.889092 45.949623 -11.488637 1.728236 -2.421863 29.715414 -2.437410 0.000000 0.000000 0.000000 
-13.110744 36.203472 -21.322931 -179.973709 -2.268181 179.301085 -0.550585 -1.917441 13.486830 -0.688521 -3.771715 -15.919277 4.275245 4.962915 13.622754 -4.273316 -0.080416 5.522906 0.000000 0.000000 0.000000 5.106629 -1.760587 15.142376 -8.262212 4.362866 -14.914963 -6.368420 6.019888 16.594052 12.471344 -0.135723 4.784489 0.000000 0.000000 0.000000 2.625211 1.298943 2.857749 1.053844 -1.450251 -14.077702 -0.375351 -2.686418 7.619491 -0.006950 0.027720 -0.076861 -0.803156 -0.425693 9.367435 -3.766842 3.052011 16.824467 0.000000 0.000000 0.000000 1.169327 0.229267 6.488139 -17.184283 -6.436225 1.778807 -50.654158 10.459644 -3.375563 3.508518 -32.082208 1.060118 0.000000 0.000000 0.000000 -3.427666 1.350417 5.593577 26.880443 3.129760 6.898293 45.938760 -11.357893 1.930653 -2.380490 29.648868 -2.413572 0.000000 0.000000 0.000000 
-13.111085 36.196045 -21.352692 -179.994896 -2.352116 179.298818 -0.568082 -1.957081 13.542243 -0.672143 -3.816214 -15.949883 4.264906 5.011505 13.680107 -4.269733 -0.125372 5.473217 0.000000 0.000000 0.000000 5.079782 -1.832835 15.203221 -8.225368 4.343847 -14.886877 -6.366110 6.097176 16.581799 12.410512 -0.148249 4.772381 0.000000 0.000000 0.000000 2.604959 1.221135 2.829119 1.015233 -1.413178 -14.112193 -0.415322 -2.677441 7.616453 0.051479 0.022233 -0.063242 -0.858604 -0.404399 9.371123 -3.750830 2.989502 16.925004 0.000000 0.000000 0.000000 1.118810 0.222254 6.489475 -17.200803 -6.422426 1.798984 -50.661729 10.463589 -3.347224 3.434617 -32.408496 1.183200 0.000000 0.000000 0.000000 -3.472323 1.364630 5.611703 26.856767 3.145662 6.907298 45.959113 -11.272862 2.154527 -2.450772 29.669625 -2.441448 0.000000 0.000000 0.000000 
-13.113189 36.187336 -21.392113 -179.963969 -2.486731 179.305279 -0.538873 -2.004853 13.608923 -0.622340 -3.866803 -16.005085 4.252937 5.036821 13.748964 -4.269152 -0.173267 5.432560 0.000000 0.000000 0.000000 5.117629 -1.915542 15.265666 -8.179175 4.320735 -14.850032 -6.384489 6.158985 16.607979 12.346201 -0.125165 4.703015 0.000000 0.000000 0.000000 2.589700 1.094442 2.782357 1.001596 -1.427819 -14.164739 -0.393570 -2.718325 7.609207 0.015119 -0.043776 -0.112727 -0.865983 -0.350111 9.446701 -3.653209 3.058464 16.996378 0.000000 0.000000 0.000000 1.127664 0.352517 6.494019 -17.222366 -6.244310 1.923722 -50.740423 10.664069 -2.983036 3.468121 -32.727579 1.230258 0.000000 0.000000 0.000000 -3.472278 1.503339 5.762886 26.805866 3.260435 6.834327 46.015965 -11.395285 2.255217 -2.452467 29.574777 -2.368294 0.000000 0.000000 0.000000 
-13.120140 36.176991 -21.441177 -179.935214 -2.626831 179.347271 -0.497359 -2.042682 13.667233 -0.601290 -3.850942 -16.064084 4.216534 5.108498 13.804252 -4.308726 -0.253435 5.414584 0.000000 0.000000 0.000000 5.134090 -1.969295 15.315263 -8.114686 4.353480 -14.798862 -6.373226 6.214484 16.616293 12.196395 -0.157347 4.685001 0.000000 0.000000 0.000000 2.588090 1.088064 2.686932 0.952562 -1.367721 -14.239897 -0.411949 -2.638841 7.681083 -0.015210 -0.030479 -0.092829 -0.836739 -0.424225 9.376844 -3.524706 3.058258 17.021280 0.000000 0.000000 0.000000 1.140761 0.307640 6.470040 -17.240062 -6.234749 1.908385 -50.944202 11.151379 -2.536277 3.494045 -32.981635 1.295276 0.000000 0.000000 0.000000 -3.460130 1.453096 5.666158 26.741244 3.139285 6.913475 46.104699 -11.712122 2.520492 -2.554206 29.414312 -2.393594 0.000000 0.000000 0.000000 
-13.126480 36.169659 -21.486698 -179.983435 -2.809801 179.337326 -0.543536 -2.089306 13.721822 -0.592523 -3.878911 -16.075130 4.199722 5.154240 13.862649 -4.341173 -0.302702 5.461299 0.000000 0.000000 0.000000 5.090204 -2.068494 15.358538 -8.083286 4.245483 -14.727286 -6.366598 6.304654 16.682551 12.108676 -0.108670 4.581168 0.000000 0.000000 0.000000 2.519993 1.065113 2.715799 0.878415 -1.295909 -14.294420 -0.385725 -2.682860 7.614294 0.010931 -0.022013 -0.079117 -0.872532 -0.491576 9.486956 -3.417976 3.078011 17.306904 0.000000 0.000000 0.000000 1.149370 0.350545 6.474548 -17.300577 -6.139890 1.924432 -51.197257 11.808456 -2.018726 3.545519 -33.289205 1.389711 0.000000 0.000000 0.000000 -3.469877 1.481394 5.763521 26.664338 3.030155 6.949888 46.299400 -12.250770 2.576615 -2.678378 29.266394 -2.463276 0.000000 0.000000 0.000000 
-13.131833 36.163189 -21.527191 179.970840 -2.985442 179.389386 -0.557354 -2.166036 13.728019 -0.611642 -3.833882 -16.096855 4.182777 5.205849 13.886928 -4.400702 -0.360872 5.501126 0.000000 0.000000 0.000000 5.025698 -2.146995 15.355490 -8.046079 4.233945 -14.682270 -6.326589 6.316336 16.651818 11.964278 -0.108446 4.561680 0.000000 0.000000 0.000000 2.483776 0.977289 2.597357 0.793597 -1.230743 -14.337786 -0.424414 -2.654016 7.709646 0.010690 -0.025193 -0.086368 -0.762456 -0.357834 9.407561 -3.209898 3.166340 17.318105 0.000000 0.000000 0.000000 1.159464 0.360062 6.457160 -17.321368 -6.060622 1.994415 -51.568618 12.637758 -1.684954 3.570360 -33.326644 1.457987 0.000000 0.000000 0.000000 -3.423860 1.496632 5.726227 26.543896 2.934231 6.943936 46.620071 -12.913367 2.549518 -2.719720 28.998330 -2.520370 0.000000 0.000000 0.000000 
-13.134682 36.159992 -21.553875 179.971264 -3.141656 179.363527 -0.549058 -2.241073 13.755519 -0.627566 -3.817597 -16.067195 4.195227 5.205843 13.925948 -4.454293 -0.376343 5.579020 0.000000 0.000000 0.000000 5.026141 -2.269331 15.354545 -8.032354 4.173335 -14.633272 -6.308143 6.361982 16.681064 11.890628 -0.043385 4.499216 0.000000 0.000000 0.000000 2.483632 0.873857 2.648818 0.750854 -1.105246 -14.351542 -0.418156 -2.757744 7.544082 -0.012421 -0.000576 -0.048020 -0.752366 -0.341384 9.591516 -3.080012 3.167106 17.628203 0.000000 0.000000 0.000000 1.170010 0.399522 6.599382 -17.320574 -5.972623 2.035324 -51.981636 13.530106 -1.336159 3.653593 -33.171025 1.517077 0.000000 0.000000 0.000000 -3.413237 1.535168 5.790841 26.436899 2.820343 6.955712 46.939420 -13.617951 2.389494 -2.874728 28.653487 -2.591520 0.000000 0.000000 0.000000 
-13.133279 36.161182 -21.567541 179.991727 -3.251208 179.417704 -0.522688 -2.348362 13.730012 -0.659287 -3.757481 -16.081962 4.232959 5.169943 13.923963 -4.516819 -0.362430 5.645049 0.000000 0.000000 0.000000 5.040234 -2.381131 15.308909 -8.043349 4.182338 -14.625517 -6.301734 6.352218 16.630653 11.821234 0.009648 4.505103 0.000000 0.000000 0.000000 2.517590 0.907028 2.485573 0.742084 -1.061522 -14.332845 -0.421370 -2.606064 7.749000 -0.006481 -0.068017 -0.135737 -0.730099 -0.309870 9.449682 -2.965942 3.176152 17.686001 0.000000 0.000000 0.000000 1.153422 0.377928 6.572668 -17.261498 -5.962741 2.023886 -52.454702 14.511869 -1.114036 3.776295 -32.838382 1.521749 0.000000 0.000000 0.000000 -3.416905 1.549529 5.766209 26.275266 2.746157 6.962542 47.380250 -14.352944 2.383646 -2.934934 28.163411 -2.631241 0.000000 0.000000 0.000000 
